<svg xmlns="http://www.w3.org/2000/svg" xmlns:xlink="http://www.w3.org/1999/xlink" style="margin:auto;background:#fff;display:block;z-index:1;position:relative;shape-rendering:auto" width="1728" height="808" preserveAspectRatio="xMidYMid" viewBox="0 0 1728 808"><g transform="translate(864,404) scale(1,1) translate(-864,-404)"><defs><linearGradient id="lg-0.07005841398069146" x1="0" x2="0" y1="0" y2="1"><stop offset=".3" stop-color="#14d1fd"/><stop offset=".65" stop-color="#ff005d"/><stop offset="1" stop-color="#ff005d"/></linearGradient><linearGradient id="fg-lg-0.07005841398069146" x1="0" x2="0" y1="0" y2="1"><stop offset=".3" stop-color="#14d1fd" stop-opacity="1"/><stop offset=".65" stop-color="#ff005d" stop-opacity=".66"/><stop offset="1" stop-color="#ff005d" stop-opacity="0"/></linearGradient><style type="text/css">path{fill:none;stroke:#000;stroke-width:1px}</style></defs><rect width="1728" height="808" x="0" y="0" fill="url(#lg-0.07005841398069146)"/><path d="M0 242.39999999999998 L-13910.400000000001 808"/><path d="M25.043478260869566 242.39999999999998 L-13482.156521739133 808"/><path d="M50.08695652173913 242.39999999999998 L-13053.913043478262 808"/><path d="M75.1304347826087 242.39999999999998 L-12625.669565217393 808"/><path d="M100.17391304347827 242.39999999999998 L-12197.426086956522 808"/><path d="M125.21739130434783 242.39999999999998 L-11769.182608695653 808"/><path d="M150.2608695652174 242.39999999999998 L-11340.939130434785 808"/><path d="M175.30434782608697 242.39999999999998 L-10912.695652173914 808"/><path d="M200.34782608695653 242.39999999999998 L-10484.452173913045 808"/><path d="M225.3913043478261 242.39999999999998 L-10056.208695652174 808"/><path d="M250.43478260869566 242.39999999999998 L-9627.965217391305 808"/><path d="M275.4782608695652 242.39999999999998 L-9199.721739130437 808"/><path d="M300.5217391304348 242.39999999999998 L-8771.478260869566 808"/><path d="M325.5652173913044 242.39999999999998 L-8343.234782608697 808"/><path d="M350.60869565217394 242.39999999999998 L-7914.991304347826 808"/><path d="M375.6521739130435 242.39999999999998 L-7486.7478260869575 808"/><path d="M400.69565217391306 242.39999999999998 L-7058.504347826088 808"/><path d="M425.7391304347826 242.39999999999998 L-6630.260869565218 808"/><path d="M450.7826086956522 242.39999999999998 L-6202.017391304349 808"/><path d="M475.82608695652175 242.39999999999998 L-5773.773913043478 808"/><path d="M500.8695652173913 242.39999999999998 L-5345.5304347826095 808"/><path d="M525.9130434782609 242.39999999999998 L-4917.286956521741 808"/><path d="M550.9565217391304 242.39999999999998 L-4489.04347826087 808"/><path d="M576 242.39999999999998 L-4060.800000000001 808"/><path d="M601.0434782608696 242.39999999999998 L-3632.5565217391304 808"/><path d="M626.0869565217391 242.39999999999998 L-3204.3130434782615 808"/><path d="M651.1304347826087 242.39999999999998 L-2776.0695652173927 808"/><path d="M676.1739130434783 242.39999999999998 L-2347.826086956522 808"/><path d="M701.2173913043479 242.39999999999998 L-1919.5826086956513 808"/><path d="M726.2608695652174 242.39999999999998 L-1491.3391304347824 808"/><path d="M751.304347826087 242.39999999999998 L-1063.0956521739135 808"/><path d="M776.3478260869565 242.39999999999998 L-634.8521739130447 808"/><path d="M801.3913043478261 242.39999999999998 L-206.608695652174 808"/><path d="M826.4347826086956 242.39999999999998 L221.6347826086967 808"/><path d="M851.4782608695652 242.39999999999998 L649.8782608695656 808"/><path d="M876.5217391304348 242.39999999999998 L1078.1217391304344 808"/><path d="M901.5652173913044 242.39999999999998 L1506.3652173913033 808"/><path d="M926.6086956521739 242.39999999999998 L1934.608695652174 808"/><path d="M951.6521739130435 242.39999999999998 L2362.8521739130447 808"/><path d="M976.695652173913 242.39999999999998 L2791.0956521739135 808"/><path d="M1001.7391304347826 242.39999999999998 L3219.3391304347824 808"/><path d="M1026.7826086956522 242.39999999999998 L3647.5826086956513 808"/><path d="M1051.8260869565217 242.39999999999998 L4075.82608695652 808"/><path d="M1076.8695652173913 242.39999999999998 L4504.069565217393 808"/><path d="M1101.9130434782608 242.39999999999998 L4932.3130434782615 808"/><path d="M1126.9565217391305 242.39999999999998 L5360.556521739134 808"/><path d="M1152 242.39999999999998 L5788.799999999999 808"/><path d="M1177.0434782608695 242.39999999999998 L6217.043478260868 808"/><path d="M1202.0869565217392 242.39999999999998 L6645.286956521741 808"/><path d="M1227.1304347826087 242.39999999999998 L7073.5304347826095 808"/><path d="M1252.1739130434783 242.39999999999998 L7501.773913043478 808"/><path d="M1277.2173913043478 242.39999999999998 L7930.017391304347 808"/><path d="M1302.2608695652175 242.39999999999998 L8358.260869565216 808"/><path d="M1327.304347826087 242.39999999999998 L8786.504347826089 808"/><path d="M1352.3478260869565 242.39999999999998 L9214.747826086958 808"/><path d="M1377.391304347826 242.39999999999998 L9642.991304347826 808"/><path d="M1402.4347826086957 242.39999999999998 L10071.234782608699 808"/><path d="M1427.4782608695652 242.39999999999998 L10499.478260869564 808"/><path d="M1452.5217391304348 242.39999999999998 L10927.721739130437 808"/><path d="M1477.5652173913043 242.39999999999998 L11355.965217391305 808"/><path d="M1502.608695652174 242.39999999999998 L11784.208695652174 808"/><path d="M1527.6521739130435 242.39999999999998 L12212.452173913047 808"/><path d="M1552.695652173913 242.39999999999998 L12640.695652173912 808"/><path d="M1577.7391304347825 242.39999999999998 L13068.939130434785 808"/><path d="M1602.7826086956522 242.39999999999998 L13497.182608695653 808"/><path d="M1627.8260869565217 242.39999999999998 L13925.426086956522 808"/><path d="M1652.8695652173913 242.39999999999998 L14353.669565217395 808"/><path d="M1677.9130434782608 242.39999999999998 L14781.91304347826 808"/><path d="M1702.9565217391305 242.39999999999998 L15210.156521739133 808"/><path d="M1728 242.39999999999998 L15638.400000000001 808"/><g><path d="M0 242.39999999999998 L1728 242.39999999999998"/><animateTransform attributeName="transform" begin="0s" calcMode="linear" dur="1.7241379310344827s" keyTimes="0;1" repeatCount="indefinite" type="translate" values="0 0;0 15.206217181264439"/></g><g><path d="M0 257.6062171812644 L1728 257.6062171812644"/><animateTransform attributeName="transform" begin="0s" calcMode="linear" dur="1.7241379310344827s" keyTimes="0;1" repeatCount="indefinite" type="translate" values="0 0;0 30.41243436252888"/></g><g><path d="M0 288.0186515437933 L1728 288.0186515437933"/><animateTransform attributeName="transform" begin="0s" calcMode="linear" dur="1.7241379310344827s" keyTimes="0;1" repeatCount="indefinite" type="translate" values="0 0;0 45.61865154379332"/></g><g><path d="M0 333.6373030875866 L1728 333.6373030875866"/><animateTransform attributeName="transform" begin="0s" calcMode="linear" dur="1.7241379310344827s" keyTimes="0;1" repeatCount="indefinite" type="translate" values="0 0;0 60.824868725057755"/></g><g><path d="M0 394.4621718126443 L1728 394.4621718126443"/><animateTransform attributeName="transform" begin="0s" calcMode="linear" dur="1.7241379310344827s" keyTimes="0;1" repeatCount="indefinite" type="translate" values="0 0;0 76.03108590632219"/></g><g><path d="M0 470.4932577189665 L1728 470.4932577189665"/><animateTransform attributeName="transform" begin="0s" calcMode="linear" dur="1.7241379310344827s" keyTimes="0;1" repeatCount="indefinite" type="translate" values="0 0;0 91.23730308758662"/></g><g><path d="M0 561.7305608065532 L1728 561.7305608065532"/><animateTransform attributeName="transform" begin="0s" calcMode="linear" dur="1.7241379310344827s" keyTimes="0;1" repeatCount="indefinite" type="translate" values="0 0;0 106.44352026885106"/></g><g><path d="M0 668.1740810754043 L1728 668.1740810754043"/><animateTransform attributeName="transform" begin="0s" calcMode="linear" dur="1.7241379310344827s" keyTimes="0;1" repeatCount="indefinite" type="translate" values="0 0;0 121.64973745011551"/></g><g><path d="M0 789.8238185255198 L1728 789.8238185255198"/><animateTransform attributeName="transform" begin="0s" calcMode="linear" dur="1.7241379310344827s" keyTimes="0;1" repeatCount="indefinite" type="translate" values="0 0;0 136.85595463137994"/></g><rect width="1728" height="808" x="0" y="0" fill="url(#fg-lg-0.07005841398069146)"/></g></svg>