<svg xmlns="http://www.w3.org/2000/svg" version="1.1" xmlns:xlink="http://www.w3.org/1999/xlink" xmlns:svgjs="http://svgjs.com/svgjs" width="1440" height="560" preserveAspectRatio="none" viewBox="0 0 1440 560">
    <g mask="url(&quot;#SvgjsMask1005&quot;)" fill="none">
        <rect width="1440" height="560" x="0" y="0" fill="rgba(241, 248, 255, 1)"></rect>
        <path d="M399.11 400.33 a27.54 27.54 0 1 0 55.08 0 a27.54 27.54 0 1 0 -55.08 0z" stroke="#037b0b"></path>
        <path d="M736.61 28.82L738.28 28.82L738.28 30.49L736.61 30.49z" fill="#037b0b"></path>
        <path d="M1409.56 114.97L1452.13 114.97L1452.13 123.35L1409.56 123.35z" stroke="#e73635"></path>
        <path d="M1110.9 445.63a9.24 9.24 0 1 0 11.1 14.77z" stroke="#037b0b"></path>
        <path d="M1138.13 242.7L1145.62 242.7L1145.62 296.31L1138.13 296.31z" fill="#e73635"></path>
        <path d="M896.28 61.03L903.69 61.03L903.69 68.44L896.28 68.44z" stroke="#e73635"></path>
        <path d="M1387.05 319.49a32 32 0 1 0-42.8 47.58z" stroke="#037b0b"></path>
        <path d="M620.89 178.28L658.42 178.28L658.42 215.81L620.89 215.81z" stroke="#d3b714"></path>
        <path d="M170.16 294.59L224.26 294.59L224.26 315.11L170.16 315.11z" stroke="#e73635"></path>
        <path d="M634.75 543.94L682.02 543.94L682.02 591.21L634.75 591.21z" stroke="#e73635"></path>
        <path d="M1092.59 253.89a9.71 9.71 0 1 0 4.68-18.85z" stroke="#037b0b"></path>
        <path d="M1017.24 79.23L1067.28 79.23L1067.28 129.27L1017.24 129.27z" fill="#d3b714"></path>
        <path d="M555.3 462.48L594 462.48L594 490.27L555.3 490.27z" stroke="#e73635"></path>
        <path d="M539.54 66.35a28.47 28.47 0 1 0 56.48 7.24z" fill="#e73635"></path>
        <path d="M1141.77 107.67 a10.33 10.33 0 1 0 20.66 0 a10.33 10.33 0 1 0 -20.66 0z" stroke="#037b0b"></path>
        <path d="M1182.19 266.31L1233.52 266.31L1233.52 277.4L1182.19 277.4z" stroke="#d3b714"></path>
        <path d="M585.47 242.72L633.37 242.72L633.37 290.62L585.47 290.62z" fill="#d3b714"></path>
        <path d="M987.18 192.6L993.46 192.6L993.46 237.68L987.18 237.68z" stroke="#e73635"></path>
        <path d="M78.99 527.5L128.07 527.5L128.07 576.58L78.99 576.58z" stroke="#037b0b"></path>
        <path d="M1205.5 240.06a5.63 5.63 0 1 0-9.74 5.64z" stroke="#e73635"></path>
        <path d="M1032.81 12.06L1064.15 12.06L1064.15 43.4L1032.81 43.4z" stroke="#d3b714"></path>
        <path d="M735.62 285.93 a4.3 4.3 0 1 0 8.6 0 a4.3 4.3 0 1 0 -8.6 0z" stroke="#e73635"></path>
        <path d="M850.04 523.34a28.54 28.54 0 1 0 55.94 11.3z" stroke="#d3b714"></path>
        <path d="M45.99 188.96 a3.19 3.19 0 1 0 6.38 0 a3.19 3.19 0 1 0 -6.38 0z" stroke="#e73635"></path>
        <path d="M3.18 263.58 a48.65 48.65 0 1 0 97.3 0 a48.65 48.65 0 1 0 -97.3 0z" stroke="#037b0b"></path>
        <path d="M1183.08 473.17L1206.61 473.17L1206.61 501.8L1183.08 501.8z" fill="#d3b714"></path>
        <path d="M534.77 83.82L546.73 83.82L546.73 114.65L534.77 114.65z" stroke="#e73635"></path>
        <path d="M1025.25 497.01L1073.02 497.01L1073.02 504.17L1025.25 504.17z" stroke="#037b0b"></path>
        <path d="M523.65 379.07L547.63 379.07L547.63 403.05L523.65 403.05z" stroke="#d3b714"></path>
        <path d="M716.35 330.44a41.31 41.31 0 1 0 76.58 31.02z" fill="#d3b714"></path>
        <path d="M1329.42 119.25L1341.57 119.25L1341.57 131.4L1329.42 131.4z" fill="#037b0b"></path>
        <path d="M437.73 131.45L475.41 131.45L475.41 165.9L437.73 165.9z" fill="#037b0b"></path>
        <path d="M872.61 418.18a49.89 49.89 0 1 0-99.31 9.64z" stroke="#037b0b"></path>
    </g>
    <defs>
        <mask id="SvgjsMask1005">
            <rect width="1440" height="560" fill="#ffffff"></rect>
        </mask>
    </defs>
</svg>